<svg width="200" height="285" viewBox="0 0 200 285" fill="none" xmlns="http://www.w3.org/2000/svg">
<g clip-path="url(#clip0_201_562)">
<path d="M59.8041 158.078C65.9957 157.258 60.3482 152.783 61.0446 148.725C61.7737 144.425 59.5539 136.516 61.0664 135.214C62.5789 133.912 63.5256 133.715 63.7867 140.06C64.037 146.405 68.4548 145.301 68.0087 150.289C67.5626 155.267 65.6148 157.465 76.4853 156.853C87.3449 156.24 99.4995 155.967 99.9891 156.175C100.479 155.967 112.633 156.24 123.493 156.853C134.353 157.465 133.156 157.673 132.72 152.685C132.274 147.707 135.941 146.405 136.192 140.06C136.442 133.715 137.388 133.923 138.912 135.214C140.424 136.516 136.823 145.038 139.358 148.593C141.882 152.138 133.993 157.258 140.174 158.078C146.366 158.899 157.356 162.717 161.523 154.391C165.691 146.066 166.279 129 157.356 129.186C148.433 129.372 140.675 127.37 128.716 127.917C122.448 128.202 119.543 127.381 122.535 126.955C127.791 126.2 139.075 126.616 138.738 124.406C138.226 121.047 131.502 117.043 127.693 115.413C123.896 113.783 120.631 113.783 112.938 112.919C111.36 112.744 109.891 112.635 108.564 112.58C107.628 112.536 106.79 111.978 106.398 111.114C106.355 111.027 106.322 110.939 106.279 110.852C105.822 109.758 104.701 107.46 99.9782 107.187C95.2448 107.449 94.1241 109.758 93.6779 110.852C93.6779 110.852 93.6779 110.863 93.6779 110.873C93.2535 111.88 92.2851 112.547 91.197 112.591C89.9238 112.646 88.531 112.755 87.0294 112.919C79.3362 113.783 76.0827 113.783 72.2742 115.413C68.4766 117.043 62.938 121.485 61.9478 124.745C63.0903 126.856 68.3896 125.445 75.3972 126.156C78.4004 126.462 77.5191 127.589 71.2514 127.294C59.3689 126.736 53.308 127.502 42.6115 129.197C33.7867 130.587 34.2764 146.077 38.444 154.402C42.6115 162.727 53.6017 158.909 59.7933 158.089L59.8041 158.078ZM99.9891 109.965C99.9891 109.965 103.199 109.856 104.559 112.569C101.882 112.657 98.0958 112.657 95.4189 112.569C96.7791 109.867 99.9891 109.965 99.9891 109.965Z" fill="#0081FF"/>
<path d="M162.013 258.143C162.013 258.143 161.306 251.503 166.235 246.547C168.444 244.326 177.236 237.719 177.236 237.719C177.236 237.719 165.223 243.123 160.653 247.729C159.108 249.282 156.072 254.26 155.408 254.861C155.702 253.187 155.941 253.33 156.235 251.568C156.376 250.748 156.485 249.96 156.583 249.184C159.325 244.48 162.144 239.546 162.144 239.546C162.144 239.546 159.804 240.749 156.931 243.725C157.106 241.405 157.193 239.13 157.356 236.581C157.661 231.943 153.547 232.304 151.066 232.216C148.596 232.129 143.7 231.21 142.655 234.218C141.632 237.161 145.354 252.859 140.381 257.684C140.773 254.817 140.881 251.743 140.707 248.965C140.207 241.023 139.075 230.116 138.912 224.077C139.728 224.591 141.012 225.576 141.48 227.14C142.187 229.459 141.872 229.886 144.472 229.427C147.073 228.967 146.986 228.967 148.945 229.241C150.892 229.514 151.719 229.241 154.418 229.47C157.116 229.7 162.699 235.706 164.614 230.149C165.267 228.256 165.974 221.659 165.473 219.526C164.973 217.393 161.208 215.555 157.345 216.376C153.493 217.196 149.728 217.273 144.701 217.043C142.84 216.955 140.881 216.933 139.14 217.021C140.174 216.758 145.441 216.266 148.738 215.435C153.09 214.691 153.993 214.319 154.527 211.409C154.494 210.939 154.505 210.359 154.559 209.691C154.603 206.727 154.603 200.568 154.07 196.542C153.341 191.083 153.983 189.147 153.341 185.11C152.829 181.85 153.079 178.24 150.925 173.022C150.686 172.453 149.913 172.431 149.608 172.967C149.608 172.967 149.608 172.967 149.608 172.978C149.608 172.978 148.139 174.422 146.42 177.058C144.701 179.695 146.529 178.546 143.362 180.909C140.196 183.272 142.035 183.305 139.771 185.099C137.508 186.882 135.517 187.692 136.333 189.3C137.149 190.908 136.714 191.893 137.486 193.643C138.259 195.393 140.163 215.85 136.692 210.446C136.442 209.308 136.289 208.39 136.333 207.821C136.518 205.633 134.429 194.266 133.613 190.711C132.797 187.167 127.019 190.274 124.081 190.919C124.081 190.919 124.211 192.866 124.059 195.076C123.743 197.833 123.384 206.749 123.384 209.91C123.384 213.072 118.085 212.875 117.867 212.733C117.269 212.35 116.866 211.836 116.594 211.234C117.845 211.562 119.445 211.321 120.49 211.048C122.252 210.588 121.937 206.913 122.024 204.408C122.111 201.902 122.514 185.34 122.905 179.246C123.123 181.828 123.395 185.427 123.351 186.16C123.33 186.565 123.428 187.615 123.569 188.797C129.543 188.261 135.201 185.219 139.162 181.762C144.32 177.266 141.197 177.354 144.864 173.47C146.725 171.501 148.89 169.051 149.336 167.125C149.75 165.375 148.923 161.94 147.16 161.612C141.632 160.583 128.172 160.135 122.797 159.675C115.669 159.063 99.9129 158.8 99.9129 158.8C99.9129 158.8 84.1567 159.052 77.0294 159.675C71.654 160.146 58.6834 161.043 53.1556 162.071C51.4037 162.399 50.7073 165.375 51.1099 167.125C51.556 169.062 53.1012 171.501 54.9619 173.47C58.6289 177.354 55.506 177.266 60.6638 181.762C64.6246 185.219 70.2829 188.261 76.2568 188.797C76.3983 187.615 76.4962 186.565 76.4744 186.16C76.4309 185.427 76.7138 181.828 76.9206 179.246C77.3123 185.329 77.7149 201.902 77.802 204.408C77.889 206.913 77.5735 210.599 79.3362 211.048C80.5332 211.464 82.296 211.256 83.6126 211.617C84.2546 211.814 85.4189 211.836 85.0054 212.098C84.7769 212.24 76.8118 214.505 76.2786 208.411C75.9956 205.261 76.0283 197.122 75.7671 195.087C75.7454 192.855 75.963 191.105 75.963 191.105C73.3515 190.547 66.9206 187.867 66.2133 190.722C65.3972 194.266 63.3188 205.644 63.4929 207.832C63.5365 208.401 63.3841 209.319 63.1339 210.457C59.6518 215.861 61.5669 195.404 62.3395 193.654C63.1121 191.904 62.6768 190.908 63.4929 189.311C64.309 187.703 62.3177 186.904 60.0544 185.11C57.7911 183.327 59.6409 183.294 56.4636 180.92C53.2971 178.557 55.1251 179.706 53.4059 177.069C51.6866 174.433 50.2176 172.989 50.2176 172.989C49.913 172.431 49.1186 172.486 48.8901 173.065C46.7465 178.262 46.9967 181.861 46.4853 185.11C45.8542 189.147 46.4853 191.083 45.7563 196.542C45.2231 200.568 45.4407 209.112 45.4842 212.076C45.0707 215.588 53.8194 216.168 57.16 216.441C58.3787 216.54 59.6627 216.747 60.6964 217.021C58.9554 216.944 56.9967 216.966 55.136 217.043C50.1197 217.273 46.3547 217.185 42.4918 216.376C38.6398 215.555 36.3221 217.459 35.8324 219.592C35.3319 221.725 34.5811 228.256 35.234 230.149C37.1491 235.695 41.8716 230.499 44.5593 230.269C47.2579 230.039 48.9554 229.503 50.9032 229.23C52.8509 228.956 52.7639 228.956 55.3645 229.416C57.9652 229.875 57.6605 229.448 58.3569 227.129C58.8357 225.565 60.1197 224.58 60.9249 224.066C60.7617 230.105 59.6409 241.023 59.1295 248.954C58.9554 251.733 59.0642 254.807 59.4559 257.673C54.4831 252.848 58.2046 237.15 57.1817 234.207C56.1371 231.199 51.2514 232.118 48.7704 232.205C46.3003 232.293 42.4918 234.328 42.7965 238.966C43.1012 243.604 42.8074 244.928 43.6126 249.676C44.1567 252.903 44.5049 255.999 45.321 258.832C45.7998 260.977 45.2775 260.9 44.3634 258.69C42.7095 254.686 39.3254 252.455 39.3254 252.455C41.9587 255.518 41.0555 262.289 40.6747 260.845C38.8139 253.691 27.2579 253.133 27.2579 253.133C27.2579 253.133 34.6681 256.251 37.1164 259.795C39.0424 262.782 36.4309 261.863 36.4309 261.863C31.8498 257.968 25.4625 257.924 25.4625 257.924C33.6344 260.845 35.5386 264.827 37.9978 267.092C40.457 269.356 44.864 269.411 47.7258 268.7C50.4461 268.033 60.7617 268.864 61.741 268.941C62.6442 269.039 63.6017 269.028 65.3537 268.733C69.9674 268.733 72.6877 267.781 78.5201 268.733C84.3634 269.684 85.9848 269.684 89.2492 268.733C92.5027 267.781 94.0261 269.006 99.8477 269.455C105.669 269.006 107.193 267.781 110.446 268.733C113.7 269.684 115.332 269.684 121.175 268.733C127.019 267.781 129.728 268.733 134.342 268.733C138.052 269.367 138.161 268.678 141.861 268.547C142.688 268.514 143.515 268.437 144.331 268.284C144.407 268.273 144.483 268.262 144.548 268.24C146.823 267.825 150.12 267.256 153.613 267.967C159.249 269.116 162.862 267.026 163.536 263.383C164.211 259.74 166.42 252.87 170.239 248.691C170.239 248.691 165.55 251.59 161.861 258.132L162.013 258.143ZM110.207 171.578C112.035 171.326 113.308 171.851 115.996 171.468C118.694 171.085 120.163 170.79 122.318 171.107C124.472 171.424 126.79 172.179 127.421 173.448C128.052 174.717 128.194 175.855 127.421 176.774C126.649 177.682 126.834 178.338 126.181 179.301C125.528 180.253 123.145 181.664 124.059 180.756C124.059 180.756 124.908 179.914 125.68 179.137C126.453 178.36 125.637 177.955 126.953 176.314C128.27 174.674 125.049 173.087 123.384 172.989C121.719 172.901 118.041 172.737 115.724 172.989C113.417 173.24 110.838 173.12 110.272 174.061C109.706 174.991 110.294 178.152 110.718 179.038C111.143 179.925 111.567 180.636 111.186 180.428C110.805 180.22 110.033 178.47 109.663 177.693C109.293 176.916 109.521 175.855 109.38 174.827C109.238 173.798 108.368 171.818 110.185 171.578H110.207ZM99.9891 188.753C99.9891 188.753 105.898 188.501 112.187 189.026C112.274 188.447 112.372 186.587 112.492 185.952C112.633 185.187 112.492 185.197 112.492 184.454C112.492 183.71 112.938 177.026 112.938 177.015C113.09 181.511 113.341 188.184 113.58 189.661C113.939 191.936 113.449 195.623 113.808 197.165C113.972 197.855 113.079 198.62 112.786 197.373C112.47 195.984 112.285 193.129 111.98 191.904C111.676 190.678 108.923 191.936 107.606 191.696C106.279 191.455 105.299 192.035 103.46 191.696C101.632 191.357 99.9891 191.564 99.9891 191.564C99.9891 191.564 98.346 191.357 96.518 191.696C94.6899 192.035 93.6997 191.455 92.3721 191.696C91.0446 191.936 88.3025 190.667 87.9978 191.904C87.6931 193.129 87.5082 195.984 87.1926 197.373C86.9097 198.62 86.0174 197.855 86.1698 197.165C86.5288 195.623 86.0392 191.936 86.3983 189.661C86.6377 188.184 86.8879 181.511 87.0403 177.015C87.0403 177.015 87.4864 183.699 87.4864 184.454C87.4864 185.208 87.3449 185.197 87.4864 185.952C87.6061 186.587 87.704 188.447 87.7911 189.026C94.0805 188.501 99.9891 188.753 99.9891 188.753ZM76.5832 172.989C74.9184 173.076 71.6975 174.674 73.0141 176.314C74.3308 177.955 73.5256 178.36 74.2873 179.137C75.0598 179.914 75.9086 180.756 75.9086 180.756C76.8226 181.664 74.4287 180.253 73.7867 179.301C73.1338 178.349 73.3188 177.682 72.5462 176.774C71.7737 175.866 71.9151 174.728 72.5462 173.448C73.1774 172.179 75.506 171.424 77.6496 171.107C79.7933 170.79 82.0784 171.063 84.6028 171.217C87.3232 171.381 86.7247 171.545 88.5528 171.796C90.3809 172.048 90.7182 173.82 90.5767 174.849C90.4353 175.877 90.6529 176.938 90.2938 177.715C89.9238 178.491 89.1621 180.242 88.7704 180.45C88.3896 180.658 88.8139 179.946 89.2383 179.06C89.6627 178.174 90.2503 175.013 89.6844 174.083C89.1186 173.153 86.5506 173.262 84.2329 173.011C81.926 172.759 78.2372 172.923 76.5724 173.011L76.5832 172.989Z" fill="#0081FF"/>
<path d="M146.681 275.931C145.473 275.723 124.211 275.603 117.563 274.848C110.903 274.093 106.333 274.968 100.707 274.859C95.0925 274.75 89.1295 274.006 81.5234 274.859C73.9173 275.712 54.5593 275.493 54.5593 275.493C58.716 275.603 66.8335 276.927 76.5071 276.555C86.1806 276.183 88.1719 278.513 97.5952 277.867C107.018 277.233 110.207 277.189 118.596 276.97C126.975 276.762 147.889 276.128 146.681 275.909V275.931Z" fill="#0081FF"/>
<path d="M102.416 282.528C97.3558 282.342 94.5266 282.013 90.5332 282.495C86.5397 282.976 69.445 283.742 69.445 283.742C69.445 283.742 86.333 285.12 92.6551 284.573C98.9771 284.015 105.8 285.613 111.012 284.759C116.224 283.906 132.807 283.643 132.807 283.643C132.807 283.643 122.1 282.878 113.808 282.254C105.517 281.62 107.476 282.725 102.416 282.539V282.528Z" fill="#0081FF"/>
<path d="M77.2905 90.3725L72.6442 86.0732L66.8661 88.0314C66.7682 88.0643 66.692 87.9439 66.7682 87.8783L71.0446 83.2071L69.0968 77.3981C69.0642 77.2996 69.1839 77.2231 69.2492 77.2996L73.8955 81.5989L79.6735 79.6407C79.7715 79.6079 79.8476 79.7282 79.7715 79.7939L75.4951 84.4651L77.4429 90.2741C77.4755 90.3725 77.3558 90.4491 77.2905 90.3725Z" fill="#0081FF"/>
<path d="M85.1795 67.0601L84.0152 65.266C83.9608 65.1894 83.8738 65.1347 83.7758 65.1457L81.654 65.266C81.556 65.266 81.469 65.3316 81.4255 65.4082L80.4679 67.3117C80.4244 67.3992 80.4353 67.4977 80.4788 67.5852L81.6431 69.3793C81.6975 69.4559 81.7845 69.5106 81.8825 69.4997L84.0043 69.3793C84.1023 69.3793 84.1893 69.3137 84.2329 69.2371L85.1904 67.3336C85.2339 67.2461 85.2231 67.1476 85.1795 67.0601Z" fill="#0081FF"/>
<path d="M52.0131 82.485L50.9793 80.8988C50.8923 80.7566 50.7291 80.669 50.555 80.68L48.6725 80.7784C48.4984 80.7784 48.3569 80.8878 48.2807 81.041L47.4211 82.7366C47.3449 82.8898 47.3558 83.0648 47.4429 83.207L48.4766 84.7933C48.5637 84.9355 48.7269 85.023 48.901 85.0121L50.7835 84.9136C50.9576 84.9136 51.099 84.8042 51.1752 84.6511L52.0348 82.9554C52.111 82.8023 52.1001 82.6272 52.0131 82.485Z" fill="#0081FF"/>
<path d="M52.9162 108.904L51.3275 108.029C51.1534 107.931 50.9467 107.942 50.7835 108.029L49.2383 108.97C49.0751 109.068 48.9771 109.254 48.9771 109.451L49.0098 111.267C49.0098 111.464 49.1186 111.639 49.2927 111.738L50.8814 112.613C51.0555 112.711 51.2622 112.7 51.4255 112.613L52.9706 111.672C53.1338 111.574 53.2318 111.388 53.2318 111.191L53.1991 109.375C53.1991 109.178 53.0903 109.003 52.9162 108.904Z" fill="#0081FF"/>
<path d="M11.6866 42.9382L11.5996 42.1943C11.5996 42.1068 11.5343 42.0302 11.4581 41.9974L10.7726 41.702C10.6964 41.6692 10.5985 41.6801 10.5332 41.7348L9.93471 42.1833C9.86942 42.238 9.8259 42.3146 9.83678 42.4021L9.92383 43.146C9.92383 43.2335 9.98912 43.3101 10.0653 43.3429L10.7508 43.6383C10.827 43.6711 10.9249 43.6602 10.9902 43.6055L11.5887 43.157C11.654 43.1023 11.6975 43.0257 11.6866 42.9382Z" fill="#0081FF"/>
<path d="M50.5658 37.1511L50.5005 36.5932C50.5005 36.5056 50.4353 36.4291 50.3591 36.3963L49.8477 36.1775C49.7715 36.1446 49.6736 36.1556 49.6083 36.2103L49.1621 36.5494C49.0968 36.6041 49.0533 36.6807 49.0642 36.7682L49.1295 37.3261C49.1295 37.4136 49.1948 37.4902 49.2709 37.523L49.7824 37.7418C49.8585 37.7746 49.9565 37.7637 50.0218 37.709L50.4679 37.3699C50.5332 37.3152 50.5767 37.2386 50.5658 37.1511Z" fill="#0081FF"/>
<path d="M1.84986 21.5839L1.7628 20.8401C1.7628 20.7525 1.69752 20.676 1.62135 20.6431L0.935818 20.3478C0.859649 20.3149 0.761716 20.3259 0.696428 20.3806L0.097951 20.8291C0.0326627 20.8838 -0.0108629 20.9604 1.84674e-05 21.0479L0.0870696 21.7918C0.0870696 21.8793 0.152358 21.9559 0.228528 21.9887L0.914055 22.2841C0.990225 22.3169 1.08816 22.306 1.15345 22.2513L1.75192 21.8027C1.81721 21.748 1.86074 21.6715 1.84986 21.5839Z" fill="#0081FF"/>
<path d="M36.6921 92.8996L36.3221 92.4729C36.2677 92.4073 36.1806 92.3745 36.0936 92.3964L35.5386 92.5058C35.4516 92.5167 35.3863 92.5823 35.3536 92.6589L35.1687 93.195C35.136 93.2715 35.1578 93.37 35.2122 93.4356L35.5822 93.8623C35.6366 93.9279 35.7236 93.9607 35.8107 93.9389L36.3656 93.8295C36.4527 93.8185 36.518 93.7529 36.5506 93.6763L36.7356 93.1403C36.7682 93.0637 36.7465 92.9652 36.6921 92.8996Z" fill="#0081FF"/>
<path d="M60.5005 59.0742L57.0838 57.9911C56.9967 57.9583 56.8988 57.9911 56.8226 58.0458L54.1893 60.4744C54.124 60.5401 54.0914 60.6385 54.1132 60.726L54.8857 64.2377C54.9075 64.3252 54.9728 64.4018 55.0598 64.4346L58.4766 65.5176C58.5637 65.5504 58.6616 65.5176 58.7378 65.4629L61.3711 63.0343C61.4363 62.9687 61.469 62.8702 61.4472 62.7827L60.6746 59.2711C60.6529 59.1836 60.5876 59.107 60.5005 59.0742Z" fill="#0081FF"/>
<path d="M75.1578 49.3379L74.592 48.6706C74.5376 48.6049 74.4505 48.5721 74.3634 48.594L73.5147 48.7581C73.4277 48.769 73.3624 48.8346 73.3297 48.9112L73.0468 49.7317C73.0142 49.8083 73.0359 49.9067 73.0903 49.9724L73.6562 50.6397C73.7106 50.7053 73.7976 50.7381 73.8847 50.7163L74.7334 50.5522C74.8205 50.5412 74.8858 50.4756 74.9184 50.399L75.2013 49.5785C75.234 49.502 75.2122 49.4035 75.1578 49.3379Z" fill="#0081FF"/>
<path d="M32.1981 43.8899L31.7846 43.2445C31.741 43.1788 31.6649 43.1351 31.5887 43.146L30.827 43.1898C30.7508 43.1898 30.6747 43.2445 30.642 43.3101L30.2938 43.9993C30.2612 44.0759 30.2612 44.1525 30.3047 44.2291L30.7182 44.8745C30.7617 44.9401 30.8379 44.9839 30.914 44.9729L31.6757 44.9292C31.7519 44.9292 31.8281 44.8745 31.8607 44.8089L32.2089 44.1197C32.2416 44.0431 32.2416 43.9665 32.1981 43.8899Z" fill="#0081FF"/>
<path d="M95.6366 56.7878L95.5495 56.0439C95.5495 55.9564 95.4842 55.8798 95.4081 55.847L94.7225 55.5516C94.6464 55.5188 94.5484 55.5297 94.4831 55.5844L93.8847 56.0329C93.8194 56.0876 93.7758 56.1642 93.7867 56.2517L93.8738 56.9956C93.8738 57.0831 93.9391 57.1597 94.0152 57.1925L94.7008 57.4879C94.7769 57.5207 94.8749 57.5098 94.9402 57.4551L95.5386 57.0066C95.6039 56.9519 95.6474 56.8753 95.6366 56.7878Z" fill="#0081FF"/>
<path d="M69.1948 97.7896L69.0969 96.9801C69.0751 96.7832 68.9554 96.6191 68.7704 96.5425L68.0305 96.2252C67.8564 96.1487 67.6496 96.1705 67.4973 96.2909L66.8444 96.7722C66.6921 96.8926 66.605 97.0785 66.6268 97.2754L66.7247 98.085C66.7465 98.2819 66.8662 98.446 67.0512 98.5226L67.7911 98.8398C67.9652 98.9164 68.1719 98.8945 68.3243 98.7742L68.9772 98.2928C69.1295 98.1725 69.2166 97.9865 69.1948 97.7896Z" fill="#0081FF"/>
<path d="M27.1055 65.1785L26.5397 64.5112C26.4853 64.4455 26.3983 64.4127 26.3112 64.4346L25.4625 64.5987C25.3754 64.6096 25.3101 64.6753 25.2775 64.7518L24.9946 65.5723C24.9619 65.6489 24.9837 65.7473 25.0381 65.813L25.6039 66.4803C25.6583 66.5459 25.7454 66.5788 25.8324 66.5569L26.6812 66.3928C26.7682 66.3818 26.8335 66.3162 26.8662 66.2396L27.1491 65.4192C27.1817 65.3426 27.16 65.2441 27.1055 65.1785Z" fill="#0081FF"/>
<path d="M80.0218 34.0442L79.9565 33.4863C79.9565 33.3988 79.8912 33.3222 79.815 33.2894L79.3036 33.0706C79.2274 33.0378 79.1295 33.0487 79.0642 33.1034L78.6181 33.4425C78.5528 33.4972 78.5092 33.5738 78.5201 33.6613L78.5854 34.2193C78.5854 34.3068 78.6507 34.3834 78.7269 34.4162L79.2383 34.635C79.3145 34.6678 79.4124 34.6568 79.4777 34.6021L79.9238 34.263C79.9891 34.2083 80.0326 34.1317 80.0218 34.0442Z" fill="#0081FF"/>
<path d="M149.26 105.808L146.801 107.953C146.725 108.018 146.692 108.106 146.714 108.204L147.334 111.42C147.356 111.508 147.421 111.585 147.508 111.617L150.588 112.689C150.675 112.722 150.773 112.7 150.849 112.635L153.308 110.491C153.384 110.425 153.417 110.337 153.395 110.239L152.775 107.023C152.753 106.935 152.688 106.859 152.601 106.826L149.521 105.754C149.434 105.721 149.336 105.743 149.26 105.808Z" fill="#0081FF"/>
<path d="M107.693 90.3397L106.54 90.3725C106.376 90.3725 106.224 90.471 106.148 90.6132L105.593 91.6306C105.517 91.7728 105.517 91.9478 105.604 92.0901L106.202 93.0746C106.289 93.2168 106.442 93.2934 106.605 93.2934L107.758 93.2606C107.922 93.2606 108.074 93.1621 108.15 93.0199L108.705 92.0025C108.781 91.8603 108.781 91.6853 108.694 91.5431L108.096 90.5585C108.009 90.4163 107.856 90.3397 107.693 90.3397Z" fill="#0081FF"/>
<path d="M165.919 69.9372L165.147 69.9591C165.071 69.9591 164.995 70.0029 164.951 70.0795L164.581 70.7687C164.538 70.8343 164.548 70.9218 164.581 70.9984L164.984 71.6657C165.027 71.7313 165.103 71.7751 165.18 71.7751L165.952 71.7532C166.028 71.7532 166.104 71.7095 166.148 71.6329L166.518 70.9437C166.561 70.878 166.551 70.7905 166.518 70.714L166.115 70.0466C166.072 69.981 165.996 69.9372 165.919 69.9372Z" fill="#0081FF"/>
<path d="M156.551 92.9543L155.539 93.1184C155.452 93.1293 155.386 93.195 155.354 93.2715L154.984 94.2342C154.951 94.3108 154.973 94.4093 155.016 94.4749L155.669 95.2735C155.724 95.3391 155.811 95.372 155.898 95.361L156.91 95.1969C156.997 95.186 157.062 95.1203 157.095 95.0438L157.465 94.0811C157.497 94.0045 157.476 93.906 157.432 93.8404L156.779 93.0418C156.725 92.9762 156.638 92.9434 156.551 92.9543Z" fill="#0081FF"/>
<path d="M99.8259 75.3743L98.6942 74.8382C98.5201 74.7616 98.3134 74.7726 98.1502 74.882L97.1273 75.604C96.9641 75.7134 96.877 75.8994 96.8988 76.0963L97.0076 77.3543C97.0294 77.5512 97.1382 77.7153 97.3232 77.8029L98.4548 78.3389C98.6289 78.4155 98.8357 78.4045 98.9989 78.2951L100.022 77.5731C100.185 77.4637 100.272 77.2778 100.25 77.0808L100.141 75.8228C100.12 75.6259 100.011 75.4618 99.8259 75.3743Z" fill="#0081FF"/>
<path d="M122.742 69.7403L120.936 65.1019L116.192 64.4893C116.115 64.4893 116.104 64.369 116.17 64.3471L120.783 62.5311L121.393 57.7614C121.393 57.6848 121.513 57.6739 121.534 57.7395L123.341 62.3779L128.085 62.9906C128.161 62.9906 128.172 63.1109 128.107 63.1328L123.493 64.9488L122.884 69.7185C122.884 69.795 122.764 69.806 122.742 69.7403Z" fill="#0081FF"/>
<path d="M133.417 75.0133L132.546 75.1555C132.459 75.1664 132.394 75.232 132.361 75.3086L132.046 76.14C132.013 76.2166 132.035 76.3151 132.078 76.3807L132.633 77.0699C132.688 77.1355 132.775 77.1684 132.862 77.1574L133.732 77.0152C133.819 77.0043 133.885 76.9386 133.917 76.8621L134.233 76.0306C134.265 75.9541 134.244 75.8556 134.2 75.79L133.645 75.1008C133.591 75.0351 133.504 75.0023 133.417 75.0133Z" fill="#0081FF"/>
<path d="M132.862 98.1178L132.176 97.8006C132.1 97.7677 132.013 97.7677 131.937 97.8224L131.317 98.26C131.251 98.3147 131.208 98.3913 131.219 98.4788L131.284 99.2446C131.284 99.3321 131.349 99.4087 131.425 99.4415L132.111 99.7588C132.187 99.7916 132.274 99.7916 132.35 99.7369L132.971 99.2993C133.036 99.2446 133.079 99.168 133.069 99.0805L133.003 98.3147C133.003 98.2272 132.938 98.1506 132.862 98.1178Z" fill="#0081FF"/>
<path d="M135.593 37.8403L133.645 39.5359C133.569 39.6016 133.536 39.6891 133.558 39.7875L134.048 42.3365C134.07 42.424 134.135 42.5006 134.222 42.5334L136.659 43.3867C136.746 43.4195 136.844 43.3976 136.921 43.332L138.868 41.6363C138.944 41.5707 138.977 41.4832 138.955 41.3847L138.466 38.8358C138.444 38.7483 138.379 38.6717 138.292 38.6389L135.854 37.7856C135.767 37.7528 135.669 37.7746 135.593 37.8403Z" fill="#0081FF"/>
<path d="M108.237 45.8591L107.465 45.8809C107.388 45.8809 107.312 45.9247 107.269 46.0013L106.899 46.6905C106.855 46.7561 106.866 46.8436 106.899 46.9202L107.301 47.5875C107.345 47.6532 107.421 47.6969 107.497 47.6969L108.27 47.675C108.346 47.675 108.422 47.6313 108.466 47.5547L108.836 46.8655C108.879 46.7999 108.868 46.7124 108.836 46.6358L108.433 45.9685C108.39 45.9028 108.313 45.8591 108.237 45.8591Z" fill="#0081FF"/>
<path d="M147.454 80.5925L146.888 80.68C146.801 80.6909 146.736 80.7566 146.703 80.8331L146.496 81.3692C146.464 81.4458 146.485 81.5442 146.529 81.6099L146.888 82.0584C146.942 82.124 147.029 82.1568 147.116 82.1459L147.682 82.0584C147.769 82.0475 147.835 81.9818 147.867 81.9052L148.074 81.3692C148.107 81.2926 148.085 81.1942 148.041 81.1285L147.682 80.68C147.628 80.6144 147.541 80.5815 147.454 80.5925Z" fill="#0081FF"/>
<path d="M192.905 49.3379L190.979 49.3816C190.805 49.3816 190.653 49.4801 190.577 49.6332L189.663 51.3289C189.587 51.482 189.587 51.6571 189.674 51.7993L190.675 53.4512C190.762 53.5934 190.925 53.6809 191.088 53.6809L193.014 53.6371C193.188 53.6371 193.341 53.5387 193.417 53.3855L194.331 51.6899C194.407 51.5367 194.407 51.3617 194.32 51.2195L193.319 49.5676C193.232 49.4254 193.069 49.3379 192.905 49.3379Z" fill="#0081FF"/>
<path d="M170.229 53.1996L169.543 52.8823C169.467 52.8495 169.38 52.8495 169.304 52.9042L168.683 53.3418C168.618 53.3965 168.575 53.4731 168.585 53.5606L168.651 54.3263C168.651 54.4139 168.716 54.4904 168.792 54.5233L169.478 54.8405C169.554 54.8733 169.641 54.8733 169.717 54.8186L170.337 54.381C170.403 54.3263 170.446 54.2498 170.435 54.1623L170.37 53.3965C170.37 53.309 170.305 53.2324 170.229 53.1996Z" fill="#0081FF"/>
<path d="M176.377 40.2251L175.691 39.9079C175.615 39.8751 175.528 39.8751 175.452 39.9298L174.831 40.3673C174.766 40.422 174.723 40.4986 174.733 40.5861L174.799 41.3519C174.799 41.4394 174.864 41.516 174.94 41.5488L175.626 41.8661C175.702 41.8989 175.789 41.8989 175.865 41.8442L176.485 41.4066C176.551 41.3519 176.594 41.2753 176.583 41.1878L176.518 40.422C176.518 40.3345 176.453 40.258 176.377 40.2251Z" fill="#0081FF"/>
<path d="M150.62 57.3676L149.489 56.8315C149.314 56.755 149.108 56.7659 148.944 56.8753L147.922 57.5973C147.758 57.7067 147.671 57.8927 147.693 58.0896L147.802 59.3477C147.824 59.5446 147.933 59.7087 148.117 59.7962L149.249 60.3322C149.423 60.4088 149.63 60.3979 149.793 60.2885L150.816 59.5664C150.979 59.4571 151.066 59.2711 151.045 59.0742L150.936 57.8161C150.914 57.6192 150.805 57.4551 150.62 57.3676Z" fill="#0081FF"/>
<path d="M153.406 27.6555L152.535 27.7977C152.448 27.8086 152.383 27.8743 152.35 27.9508L152.035 28.7822C152.002 28.8588 152.024 28.9573 152.067 29.0229L152.622 29.7121C152.677 29.7778 152.764 29.8106 152.851 29.7996L153.721 29.6574C153.808 29.6465 153.874 29.5808 153.906 29.5043L154.222 28.6728C154.255 28.5963 154.233 28.4978 154.189 28.4322L153.634 27.743C153.58 27.6773 153.493 27.6445 153.406 27.6555Z" fill="#0081FF"/>
<path d="M175.071 87.2438L174.298 87.2657C174.222 87.2657 174.146 87.3094 174.102 87.386L173.732 88.0752C173.689 88.1408 173.7 88.2284 173.732 88.3049L174.135 88.9723C174.178 89.0379 174.255 89.0816 174.331 89.0816L175.103 89.0598C175.18 89.0598 175.256 89.016 175.299 88.9394L175.669 88.2502C175.713 88.1846 175.702 88.0971 175.669 88.0205L175.267 87.3532C175.223 87.2875 175.147 87.2438 175.071 87.2438Z" fill="#0081FF"/>
<path d="M200 24.8987L199.913 24.1548C199.913 24.0672 199.848 23.9907 199.771 23.9579L199.086 23.6625C199.01 23.6297 198.912 23.6406 198.847 23.6953L198.248 24.1438C198.183 24.1985 198.139 24.2751 198.15 24.3626L198.237 25.1065C198.237 25.194 198.302 25.2706 198.379 25.3034L199.064 25.5988C199.14 25.6316 199.238 25.6207 199.304 25.566L199.902 25.1175C199.967 25.0628 200.011 24.9862 200 24.8987Z" fill="#0081FF"/>
<path d="M116.899 23.5093L115.767 22.9733C115.593 22.8967 115.386 22.9076 115.223 23.017L114.2 23.7391C114.037 23.8485 113.95 24.0344 113.972 24.2313L114.081 25.4894C114.102 25.6863 114.211 25.8504 114.396 25.9379L115.528 26.474C115.702 26.5506 115.909 26.5396 116.072 26.4302L117.095 25.7082C117.258 25.5988 117.345 25.4128 117.323 25.2159L117.214 23.9579C117.193 23.7609 117.084 23.5968 116.899 23.5093Z" fill="#0081FF"/>
<path d="M173.177 13.4777L169.761 12.3946C169.674 12.3618 169.576 12.3946 169.499 12.4493L166.866 14.8779C166.801 14.9436 166.768 15.042 166.79 15.1295L167.563 18.6412C167.584 18.7287 167.65 18.8053 167.737 18.8381L171.153 19.9211C171.24 19.9539 171.338 19.9211 171.415 19.8664L174.048 17.4378C174.113 17.3722 174.146 17.2737 174.124 17.1862L173.351 13.6746C173.33 13.5871 173.264 13.5105 173.177 13.4777Z" fill="#0081FF"/>
<path d="M55.2884 14.0246L53.3406 15.7203C53.2644 15.7859 53.2318 15.8734 53.2535 15.9719L53.7432 18.5208C53.765 18.6084 53.8303 18.6849 53.9173 18.7178L56.3547 19.571C56.4418 19.6039 56.5397 19.582 56.6159 19.5163L58.5637 17.8207C58.6398 17.7551 58.6725 17.6675 58.6507 17.5691L58.161 15.0201C58.1393 14.9326 58.074 14.8561 57.9869 14.8232L55.5495 13.9699C55.4625 13.9371 55.3645 13.959 55.2884 14.0246Z" fill="#0081FF"/>
<path d="M21.4908 14.331L22.296 10.3489L19.3145 7.81092C19.3145 7.81092 19.3145 7.69058 19.3689 7.70152L23.3297 8.51105L25.8542 5.51359C25.8542 5.51359 25.9739 5.51359 25.963 5.56829L25.1578 9.55032L28.1393 12.0883C28.1393 12.0883 28.1393 12.2087 28.0849 12.1977L24.1241 11.3882L21.5996 14.3857C21.5996 14.3857 21.4799 14.3857 21.4908 14.331Z" fill="#0081FF"/>
<path d="M91.4146 12.0008L91.3166 11.1913C91.2949 10.9944 91.1752 10.8303 90.9902 10.7537L90.2503 10.4364C90.0762 10.3599 89.8694 10.3817 89.7171 10.5021L89.0642 10.9834C88.9119 11.1038 88.8248 11.2897 88.8466 11.4866L88.9445 12.2962C88.9663 12.4931 89.086 12.6572 89.2709 12.7338L90.0109 13.051C90.185 13.1276 90.3917 13.1057 90.5441 12.9854L91.1969 12.504C91.3493 12.3837 91.4363 12.1977 91.4146 12.0008Z" fill="#0081FF"/>
<path d="M141.262 0.995508L141.197 0.437586C141.197 0.350068 141.132 0.273491 141.056 0.240672L140.544 0.0218786C140.468 -0.0109403 140.37 -6.75907e-07 140.305 0.0546976L139.859 0.393827C139.793 0.448525 139.75 0.525103 139.761 0.61262L139.826 1.17054C139.826 1.25806 139.891 1.33464 139.967 1.36746L140.479 1.58625C140.555 1.61907 140.653 1.60813 140.718 1.55343L141.164 1.2143C141.23 1.1596 141.273 1.08303 141.262 0.995508Z" fill="#0081FF"/>
</g>
<defs>
<clipPath id="clip0_201_562">
<rect width="200" height="285" fill="white"/>
</clipPath>
</defs>
</svg>
