<svg width="87" height="93" viewBox="0 0 87 93" fill="none" xmlns="http://www.w3.org/2000/svg">
<path d="M19.6438 28.9553C23.1854 28.4885 19.955 25.9428 20.3534 23.6335C20.7704 21.1874 19.5006 16.6873 20.3658 15.9466C21.231 15.2059 21.7725 15.0939 21.9219 18.7039C22.065 22.314 24.5921 21.6854 24.3369 24.5236C24.0817 27.3557 22.9676 28.6067 29.1856 28.2582C35.3974 27.9096 42.3499 27.754 42.63 27.8723C42.9101 27.754 49.8626 27.9096 56.0744 28.2582C62.2863 28.6067 61.6016 28.725 61.3526 25.8867C61.0974 23.0547 63.195 22.314 63.3382 18.7039C63.4813 15.0939 64.0228 15.2121 64.8942 15.9466C65.7594 16.6873 63.6992 21.536 65.1494 23.5589C66.5935 25.5755 62.0809 28.4885 65.6163 28.9553C69.1579 29.4221 75.4444 31.5944 77.8283 26.8577C80.2122 22.1211 80.5483 12.4112 75.4444 12.517C70.3405 12.6228 65.9026 11.4838 59.0621 11.795C55.4769 11.9568 53.815 11.49 55.5267 11.2473C58.533 10.8178 64.9876 11.0543 64.7946 9.797C64.5021 7.88615 60.6555 5.60807 58.477 4.68065C56.3047 3.75323 54.4375 3.75323 50.0369 3.26152C49.1344 3.16193 48.2941 3.09969 47.5347 3.06857C46.9995 3.04367 46.5202 2.72623 46.2961 2.23451C46.2712 2.18472 46.2525 2.13492 46.2276 2.08513C45.9662 1.4627 45.3251 0.155607 42.6238 0C39.9162 0.149382 39.2751 1.4627 39.0199 2.08513C39.0199 2.08513 39.0199 2.09135 39.0199 2.09758C38.7772 2.67021 38.2232 3.04989 37.6008 3.07479C36.8726 3.10591 36.0759 3.16815 35.2169 3.26152C30.8164 3.75323 28.9553 3.75323 26.7768 4.68065C24.6045 5.60807 21.4364 8.13512 20.87 9.98995C21.5235 11.1912 24.5547 10.3883 28.5632 10.7929C30.2811 10.9672 29.7769 11.6083 26.1917 11.4402C19.3948 11.1228 15.9279 11.5585 9.80945 12.5232C4.76156 13.3137 5.04166 22.1273 7.42555 26.8639C9.80945 31.6006 16.096 29.4283 19.6376 28.9615L19.6438 28.9553ZM42.63 1.58096C42.63 1.58096 44.4662 1.51872 45.2442 3.06234C43.713 3.11213 41.547 3.11213 40.0158 3.06234C40.7939 1.52494 42.63 1.58096 42.63 1.58096Z" fill="#1E0D56"/>
<path d="M78.1084 86.3867C78.1084 86.3867 77.7038 82.6086 80.5234 79.789C81.7869 78.5255 86.8161 74.766 86.8161 74.766C86.8161 74.766 79.9445 77.8408 77.3303 80.4612C76.4465 81.3451 74.7099 84.1771 74.3302 84.5195C74.4983 83.5672 74.6352 83.6481 74.8033 82.646C74.8842 82.1791 74.9464 81.731 75.0024 81.2891C76.571 78.6126 78.1831 75.8055 78.1831 75.8055C78.1831 75.8055 76.8448 76.4902 75.2016 78.1832C75.3012 76.8636 75.351 75.569 75.4444 74.1187C75.6187 71.4796 73.2659 71.685 71.8467 71.6352C70.4338 71.5854 67.6329 71.0626 67.0354 72.7743C66.4503 74.4486 68.579 83.3804 65.7345 86.1253C65.9586 84.4946 66.0208 82.7455 65.9212 81.1646C65.6349 76.6458 64.9876 70.4402 64.8942 67.0044C65.3611 67.2969 66.0955 67.8571 66.3632 68.7472C66.7677 70.0667 66.5872 70.3095 68.0748 70.048C69.5624 69.7866 69.5126 69.7866 70.633 69.9422C71.7472 70.0978 72.2202 69.9422 73.7638 70.0729C75.3074 70.2036 78.5005 73.6208 79.596 70.4588C79.9694 69.382 80.374 65.6288 80.0877 64.4151C79.8014 63.2013 77.6478 62.1557 75.4382 62.6225C73.2348 63.0893 71.0812 63.1329 68.2055 63.0022C67.1412 62.9524 66.0208 62.9399 65.0249 62.9897C65.6163 62.8403 68.6288 62.5602 70.5148 62.0872C73.0045 61.6639 73.5211 61.4523 73.8261 59.7967C73.8074 59.529 73.8136 59.1991 73.8447 58.8194C73.8696 57.1327 73.8696 53.6284 73.5646 51.3379C73.1476 48.232 73.5148 47.1303 73.1476 44.8335C72.8551 42.9787 72.9982 40.9247 71.7658 37.9557C71.6289 37.632 71.187 37.6196 71.0127 37.9246C71.0127 37.9246 71.0127 37.9246 71.0127 37.9308C71.0127 37.9308 70.1724 38.7524 69.189 40.2525C68.2055 41.7525 69.2512 41.099 67.44 42.4434C65.6287 43.7878 66.6806 43.8065 65.386 44.8273C64.0913 45.8418 62.9523 46.3024 63.4191 47.2174C63.8859 48.1324 63.6369 48.6926 64.0789 49.6884C64.5208 50.6843 65.61 62.3237 63.6245 59.2489C63.4813 58.6016 63.3942 58.0788 63.4191 57.7551C63.5249 56.5102 62.3298 50.0432 61.863 48.0203C61.3962 46.0037 58.0911 47.7714 56.4106 48.1386C56.4106 48.1386 56.4852 49.2465 56.3981 50.5038C56.2176 52.0723 56.0122 57.1451 56.0122 58.9439C56.0122 60.7428 52.981 60.6307 52.8565 60.5498C52.5142 60.332 52.2839 60.0394 52.1283 59.6971C52.8441 59.8838 53.759 59.7469 54.3565 59.5913C55.3649 59.3298 55.1844 57.2385 55.2342 55.8131C55.284 54.3878 55.5143 44.9642 55.7383 41.4973C55.8628 42.9662 56.0184 45.014 55.9935 45.431C55.9811 45.6613 56.0371 46.2589 56.118 46.9311C59.5351 46.6261 62.7718 44.8958 65.0374 42.9289C67.9877 40.3707 66.2013 40.4205 68.2989 38.2109C69.3633 37.0905 70.6019 35.6963 70.8571 34.6008C71.0936 33.6049 70.6206 31.6505 69.6122 31.4638C66.4503 30.8787 58.7509 30.6235 55.6761 30.3621C51.5992 30.0135 42.5865 29.8642 42.5865 29.8642C42.5865 29.8642 33.5737 30.0073 29.4968 30.3621C26.422 30.6297 19.0027 31.1401 15.8408 31.7252C14.8387 31.9119 14.4403 33.6049 14.6706 34.6008C14.9258 35.7025 15.8096 37.0905 16.874 38.2109C18.9716 40.4205 17.1852 40.3707 20.1355 42.9289C22.4011 44.8958 25.6378 46.6261 29.0549 46.9311C29.1358 46.2589 29.1918 45.6613 29.1794 45.431C29.1545 45.014 29.3163 42.9662 29.4346 41.4973C29.6586 44.958 29.8889 54.3878 29.9387 55.8131C29.9885 57.2385 29.808 59.3361 30.8164 59.5913C31.501 59.8278 32.5094 59.7095 33.2625 59.9149C33.6297 60.027 34.2957 60.0394 34.0592 60.1888C33.9285 60.2697 29.3723 61.5581 29.0673 58.0912C28.9055 56.2986 28.9242 51.6678 28.7748 50.5101C28.7623 49.2403 28.8868 48.2444 28.8868 48.2444C27.393 47.927 23.7145 46.402 23.3099 48.0266C22.8431 50.0432 21.6542 56.5165 21.7538 57.7613C21.7787 58.085 21.6916 58.6078 21.5484 59.2552C19.5567 62.3299 20.6521 50.6906 21.094 49.6947C21.536 48.6988 21.287 48.1324 21.7538 47.2236C22.2206 46.3087 21.0816 45.8543 19.787 44.8335C18.4923 43.819 19.5504 43.8003 17.7329 42.4496C15.9217 41.1052 16.9674 41.7587 15.9839 40.2587C15.0005 38.7586 14.1602 37.937 14.1602 37.937C13.9859 37.6196 13.5316 37.6507 13.4009 37.9806C12.1747 40.9371 12.3178 42.9849 12.0253 44.8335C11.6643 47.1303 12.0253 48.232 11.6083 51.3379C11.3033 53.6284 11.4278 58.4896 11.4527 60.1763C11.2161 62.1743 16.2204 62.5042 18.1313 62.6598C18.8284 62.7158 19.5629 62.8341 20.1542 62.9897C19.1583 62.9461 18.0379 62.9586 16.9736 63.0022C14.1042 63.1329 11.9506 63.0831 9.74098 62.6225C7.53759 62.1557 6.21182 63.2387 5.93173 64.4524C5.64541 65.6661 5.21594 69.382 5.5894 70.4588C6.68487 73.6145 9.3862 70.658 10.9236 70.5273C12.4672 70.3966 13.4382 70.0916 14.5523 69.936C15.6665 69.7804 15.6167 69.7804 17.1043 70.0418C18.5919 70.3032 18.4176 70.0605 18.816 68.7409C19.0898 67.8509 19.8243 67.2907 20.2849 66.9981C20.1915 70.4339 19.5504 76.6458 19.2579 81.1584C19.1583 82.7393 19.2205 84.4883 19.4446 86.1191C16.6001 83.3742 18.7288 74.4424 18.1437 72.768C17.5462 71.0564 14.7515 71.5792 13.3324 71.629C11.9195 71.6788 9.74098 72.8365 9.91526 75.4756C10.0895 78.1147 9.92149 78.8678 10.3821 81.5692C10.6933 83.4053 10.8925 85.1668 11.3593 86.7789C11.6332 87.9988 11.3344 87.9553 10.8116 86.698C9.86547 84.4199 7.92972 83.1501 7.92972 83.1501C9.43599 84.8929 8.91938 88.7457 8.70153 87.9241C7.63718 83.8535 1.027 83.536 1.027 83.536C1.027 83.536 5.26573 85.3099 6.66619 87.3266C7.76789 89.0258 6.27406 88.503 6.27406 88.503C3.65365 86.2872 0 86.2623 0 86.2623C4.67443 87.9241 5.76367 90.1898 7.17036 91.4782C8.57704 92.7666 11.0979 92.7977 12.7349 92.3932C14.2909 92.0135 20.1915 92.4865 20.7517 92.5301C21.2683 92.5861 21.8161 92.5799 22.8182 92.4118C25.4573 92.4118 27.0133 91.8703 30.3495 92.4118C33.692 92.9533 34.6194 92.9533 36.4867 92.4118C38.3477 91.8703 39.2191 92.5674 42.5491 92.8226C45.8791 92.5674 46.7505 91.8703 48.6115 92.4118C50.4726 92.9533 51.4062 92.9533 54.7487 92.4118C58.0911 91.8703 59.641 92.4118 62.28 92.4118C64.4025 92.7728 64.4648 92.3807 66.581 92.306C67.0541 92.2873 67.5271 92.2438 67.9939 92.1566C68.0375 92.1504 68.0811 92.1442 68.1184 92.1317C69.4193 91.8952 71.3052 91.5716 73.3032 91.9761C76.5274 92.6297 78.5938 91.4408 78.9798 89.3682C79.3657 87.2955 80.6292 83.3866 82.8139 81.009C82.8139 81.009 80.1312 82.6584 78.0212 86.3805L78.1084 86.3867ZM48.4746 37.1341C49.5203 36.9909 50.2485 37.2897 51.7859 37.0719C53.3295 36.854 54.1698 36.686 55.4022 36.8665C56.6346 37.047 57.9604 37.4764 58.3214 38.1984C58.6824 38.9205 58.7633 39.5678 58.3214 40.0906C57.8795 40.6072 57.9853 40.9807 57.6118 41.5284C57.2384 42.0699 55.8753 42.8729 56.3981 42.3563C56.3981 42.3563 56.8836 41.877 57.3255 41.4351C57.7674 40.9931 57.3006 40.7628 58.0538 39.8292C58.8069 38.8956 56.9645 37.993 56.0122 37.937C55.0599 37.8872 52.9561 37.7939 51.6303 37.937C50.3108 38.0802 48.8356 38.0117 48.512 38.547C48.1883 39.0761 48.5244 40.8749 48.7672 41.3791C49.0099 41.8832 49.2526 42.2878 49.0348 42.1695C48.8169 42.0513 48.375 41.0554 48.1634 40.6135C47.9518 40.1715 48.0825 39.5678 48.0016 38.9827C47.9207 38.3976 47.4227 37.271 48.4622 37.1341H48.4746ZM42.63 46.9062C42.63 46.9062 46.0098 46.763 49.6074 47.0618C49.6572 46.7319 49.7132 45.6738 49.7817 45.3128C49.8626 44.8771 49.7817 44.8833 49.7817 44.4601C49.7817 44.0368 50.0369 40.2338 50.0369 40.2276C50.124 42.7857 50.2672 46.5825 50.4041 47.4228C50.6095 48.7175 50.3294 50.815 50.5348 51.6927C50.6282 52.0848 50.1178 52.5205 49.9498 51.8109C49.7693 51.0204 49.6635 49.3959 49.4892 48.6988C49.3149 48.0017 47.7402 48.7175 46.987 48.5805C46.2276 48.4436 45.6675 48.7735 44.6156 48.5805C43.5699 48.3876 42.63 48.5058 42.63 48.5058C42.63 48.5058 41.6902 48.3876 40.6445 48.5805C39.5988 48.7735 39.0324 48.4436 38.273 48.5805C37.5137 48.7175 35.9452 47.9954 35.7709 48.6988C35.5966 49.3959 35.4908 51.0204 35.3103 51.8109C35.1484 52.5205 34.6381 52.0848 34.7252 51.6927C34.9306 50.815 34.6505 48.7175 34.8559 47.4228C34.9928 46.5825 35.136 42.7857 35.2231 40.2276C35.2231 40.2276 35.4783 44.0306 35.4783 44.4601C35.4783 44.8895 35.3974 44.8833 35.4783 45.3128C35.5468 45.6738 35.6028 46.7319 35.6526 47.0618C39.2502 46.763 42.63 46.9062 42.63 46.9062ZM29.2416 37.937C28.2893 37.9868 26.4469 38.8956 27.2001 39.8292C27.9532 40.7628 27.4926 40.9931 27.9283 41.4351C28.3702 41.877 28.8557 42.3563 28.8557 42.3563C29.3786 42.8729 28.0092 42.0699 27.642 41.5284C27.2685 40.9869 27.3743 40.6072 26.9324 40.0906C26.4905 39.574 26.5714 38.9267 26.9324 38.1984C27.2934 37.4764 28.6254 37.047 29.8516 36.8665C31.0778 36.686 32.3849 36.8416 33.8289 36.9287C35.385 37.0221 35.0426 37.1154 36.0883 37.2586C37.134 37.4017 37.3269 38.4101 37.246 38.9952C37.1651 39.5802 37.2896 40.184 37.0842 40.6259C36.8726 41.0678 36.4369 42.0637 36.2128 42.182C35.995 42.3002 36.2377 41.8957 36.4804 41.3915C36.7232 40.8873 37.0593 39.0885 36.7356 38.5595C36.412 38.0304 34.9431 38.0926 33.6173 37.9495C32.2977 37.8063 30.1877 37.8997 29.2354 37.9495L29.2416 37.937Z" fill="#1E0D56"/>
</svg>
